<svg width="60" height="80" viewBox="0 0 60 80" fill="none" xmlns="http://www.w3.org/2000/svg">
<g id="code-file-svgrepo-com 1" clip-path="url(#clip0_30_9)">
<path id="XMLID_407_" d="M10.1875 79.75C4.66465 79.75 0.1875 75.2728 0.1875 69.75V10.25C0.1875 4.72715 4.66465 0.25 10.1875 0.25H35.7954C38.4475 0.25 40.9911 1.30357 42.8664 3.17893L56.8836 17.1961C58.7589 19.0714 59.8125 21.615 59.8125 24.2671V69.75C59.8125 75.2728 55.3353 79.75 49.8125 79.75H10.1875Z" stroke="#1E0042" stroke-width="2" stroke-miterlimit="10"/>
<path id="XMLID_403_" d="M39.9375 0.25V20.125H59.8125" stroke="#1E0042" stroke-width="2" stroke-miterlimit="10"/>
<g id="JWT">
<path d="M22.1719 24H19.8616C18.0234 24 16.2606 24.7486 14.9608 26.0811C13.661 27.4136 12.9308 29.2208 12.9308 31.1053V38.2105C12.9308 40.095 12.2006 41.9022 10.9008 43.2347C9.60104 44.5672 7.83816 45.3158 6 45.3158C7.83816 45.3158 9.60104 46.0644 10.9008 47.3969C12.2006 48.7294 12.9308 50.5366 12.9308 52.4211V61.8947C12.9308 63.7792 13.661 65.5864 14.9608 66.9189C16.2606 68.2514 18.0234 69 19.8616 69H22.1719" stroke="#1E0042" stroke-width="2" stroke-linecap="round"/>
<path d="M36.9375 24H39.2478C41.0859 24 42.8488 24.7486 44.1486 26.0811C45.4484 27.4136 46.1786 29.2208 46.1786 31.1053V38.2105C46.1786 40.095 46.9088 41.9022 48.2086 43.2347C49.5083 44.5672 51.2712 45.3158 53.1094 45.3158C51.2712 45.3158 49.5083 46.0644 48.2086 47.3969C46.9088 48.7294 46.1786 50.5366 46.1786 52.4211V61.8947C46.1786 63.7792 45.4484 65.5864 44.1486 66.9189C42.8488 68.2514 41.0859 69 39.2478 69H36.9375" stroke="#1E0042" stroke-width="2" stroke-linecap="round"/>
</g>
</g>
<defs>
<clipPath id="clip0_30_9">
<rect width="60" height="80" fill="white"/>
</clipPath>
</defs>
</svg>
